<svg width="1440" height="1024" viewBox="0 0 1440 1024" fill="none" xmlns="http://www.w3.org/2000/svg">
<g clip-path="url(#clip0_6_10)">
<rect width="1440" height="1024" fill="#9F69FE" fill-opacity="0.25"/>
<circle cx="38.5" cy="363.5" r="7.5" fill="white"/>
<path d="M38.5 368.5V331C38.5 327.134 41.634 324 45.5 324H121" stroke="white" stroke-width="3"/>
<rect x="65" y="313" width="97" height="21" rx="10" fill="white"/>
<path d="M82.3933 328H81.2853L84.4899 319.273H85.5808L88.7853 328H87.6774L85.0694 320.653H85.0012L82.3933 328ZM82.8024 324.591H87.2683V325.528H82.8024V324.591ZM92.4799 328.136C91.9345 328.136 91.4529 327.999 91.0353 327.723C90.6177 327.445 90.291 327.053 90.0552 326.547C89.8194 326.038 89.7015 325.438 89.7015 324.744C89.7015 324.057 89.8194 323.46 90.0552 322.955C90.291 322.449 90.6191 322.058 91.0396 321.783C91.46 321.507 91.9458 321.369 92.497 321.369C92.9231 321.369 93.2598 321.44 93.5069 321.582C93.7569 321.722 93.9473 321.881 94.0779 322.06C94.2115 322.236 94.3152 322.381 94.389 322.494H94.4743V319.273H95.4799V328H94.5083V326.994H94.389C94.3152 327.114 94.21 327.264 94.0737 327.446C93.9373 327.625 93.7427 327.786 93.4899 327.928C93.237 328.067 92.9004 328.136 92.4799 328.136ZM92.6163 327.233C93.0197 327.233 93.3606 327.128 93.639 326.918C93.9174 326.705 94.1291 326.411 94.274 326.036C94.4189 325.658 94.4913 325.222 94.4913 324.727C94.4913 324.239 94.4203 323.811 94.2782 323.445C94.1362 323.075 93.926 322.788 93.6475 322.584C93.3691 322.376 93.0254 322.273 92.6163 322.273C92.1902 322.273 91.835 322.382 91.551 322.601C91.2697 322.817 91.0581 323.111 90.916 323.483C90.7768 323.852 90.7072 324.267 90.7072 324.727C90.7072 325.193 90.7782 325.616 90.9203 325.997C91.0652 326.375 91.2782 326.676 91.5595 326.901C91.8436 327.122 92.1958 327.233 92.6163 327.233ZM97.4615 321.455H98.4672V328.477C98.4672 328.881 98.3975 329.23 98.2583 329.526C98.122 329.821 97.9146 330.05 97.6362 330.212C97.3606 330.374 97.0126 330.455 96.5922 330.455C96.5581 330.455 96.524 330.455 96.4899 330.455C96.4558 330.455 96.4217 330.455 96.3876 330.455V329.517C96.4217 329.517 96.4529 329.517 96.4814 329.517C96.5098 329.517 96.541 329.517 96.5751 329.517C96.8819 329.517 97.1064 329.426 97.2484 329.244C97.3904 329.065 97.4615 328.81 97.4615 328.477V321.455ZM97.9558 320.364C97.7598 320.364 97.5907 320.297 97.4487 320.163C97.3095 320.03 97.2399 319.869 97.2399 319.682C97.2399 319.494 97.3095 319.334 97.4487 319.2C97.5907 319.067 97.7598 319 97.9558 319C98.1518 319 98.3194 319.067 98.4586 319.2C98.6007 319.334 98.6717 319.494 98.6717 319.682C98.6717 319.869 98.6007 320.03 98.4586 320.163C98.3194 320.297 98.1518 320.364 97.9558 320.364ZM104.434 325.324V321.455H105.44V328H104.434V326.892H104.366C104.213 327.224 103.974 327.507 103.65 327.74C103.326 327.97 102.917 328.085 102.423 328.085C102.014 328.085 101.65 327.996 101.332 327.817C101.014 327.635 100.764 327.362 100.582 326.999C100.4 326.632 100.309 326.17 100.309 325.614V321.455H101.315V325.545C101.315 326.023 101.448 326.403 101.715 326.688C101.985 326.972 102.329 327.114 102.747 327.114C102.997 327.114 103.251 327.05 103.509 326.922C103.771 326.794 103.99 326.598 104.166 326.334C104.345 326.07 104.434 325.733 104.434 325.324ZM111.918 322.92L111.015 323.176C110.958 323.026 110.874 322.879 110.763 322.737C110.655 322.592 110.508 322.473 110.32 322.379C110.133 322.286 109.893 322.239 109.6 322.239C109.199 322.239 108.866 322.331 108.599 322.516C108.334 322.697 108.202 322.929 108.202 323.21C108.202 323.46 108.293 323.658 108.475 323.803C108.657 323.947 108.941 324.068 109.327 324.165L110.299 324.403C110.884 324.545 111.32 324.763 111.607 325.055C111.894 325.345 112.037 325.719 112.037 326.176C112.037 326.551 111.93 326.886 111.714 327.182C111.501 327.477 111.202 327.71 110.819 327.881C110.435 328.051 109.989 328.136 109.481 328.136C108.813 328.136 108.26 327.991 107.823 327.702C107.385 327.412 107.108 326.989 106.992 326.432L107.947 326.193C108.037 326.545 108.209 326.81 108.462 326.986C108.718 327.162 109.052 327.25 109.464 327.25C109.932 327.25 110.305 327.151 110.58 326.952C110.858 326.75 110.998 326.509 110.998 326.227C110.998 326 110.918 325.81 110.759 325.656C110.6 325.5 110.356 325.384 110.026 325.307L108.935 325.051C108.336 324.909 107.895 324.689 107.614 324.391C107.336 324.089 107.197 323.713 107.197 323.261C107.197 322.892 107.3 322.565 107.508 322.281C107.718 321.997 108.003 321.774 108.364 321.612C108.728 321.45 109.14 321.369 109.6 321.369C110.248 321.369 110.756 321.511 111.126 321.795C111.498 322.08 111.762 322.455 111.918 322.92ZM116.398 321.455V322.307H113.006V321.455H116.398ZM113.994 319.886H115V326.125C115 326.409 115.041 326.622 115.124 326.764C115.209 326.903 115.317 326.997 115.448 327.045C115.581 327.091 115.722 327.114 115.869 327.114C115.98 327.114 116.071 327.108 116.142 327.097C116.213 327.082 116.27 327.071 116.313 327.062L116.517 327.966C116.449 327.991 116.354 328.017 116.232 328.043C116.11 328.071 115.955 328.085 115.767 328.085C115.483 328.085 115.205 328.024 114.932 327.902C114.662 327.78 114.438 327.594 114.259 327.344C114.083 327.094 113.994 326.778 113.994 326.398V319.886ZM121.933 330.455C121.763 330.455 121.611 330.44 121.477 330.412C121.344 330.386 121.252 330.361 121.2 330.335L121.456 329.449C121.7 329.511 121.916 329.534 122.104 329.517C122.291 329.5 122.458 329.416 122.602 329.266C122.75 329.118 122.885 328.878 123.007 328.545L123.195 328.034L120.774 321.455H121.865L123.672 326.67H123.74L125.547 321.455H126.638L123.86 328.955C123.735 329.293 123.58 329.572 123.395 329.794C123.21 330.018 122.996 330.185 122.752 330.293C122.51 330.401 122.237 330.455 121.933 330.455ZM130.475 328.136C129.845 328.136 129.301 327.997 128.843 327.719C128.389 327.438 128.038 327.045 127.791 326.543C127.546 326.037 127.424 325.449 127.424 324.778C127.424 324.108 127.546 323.517 127.791 323.006C128.038 322.491 128.382 322.091 128.822 321.804C129.265 321.514 129.782 321.369 130.373 321.369C130.714 321.369 131.051 321.426 131.383 321.54C131.715 321.653 132.018 321.838 132.291 322.094C132.563 322.347 132.781 322.682 132.943 323.099C133.105 323.517 133.186 324.031 133.186 324.642V325.068H128.14V324.199H132.163C132.163 323.83 132.089 323.5 131.941 323.21C131.796 322.92 131.589 322.692 131.319 322.524C131.052 322.357 130.737 322.273 130.373 322.273C129.972 322.273 129.626 322.372 129.333 322.571C129.044 322.767 128.82 323.023 128.664 323.338C128.508 323.653 128.43 323.991 128.43 324.352V324.932C128.43 325.426 128.515 325.845 128.686 326.189C128.859 326.53 129.099 326.79 129.406 326.969C129.713 327.145 130.069 327.233 130.475 327.233C130.74 327.233 130.978 327.196 131.191 327.122C131.407 327.045 131.593 326.932 131.749 326.781C131.906 326.628 132.026 326.437 132.112 326.21L133.083 326.483C132.981 326.812 132.809 327.102 132.568 327.352C132.326 327.599 132.028 327.793 131.673 327.932C131.318 328.068 130.919 328.136 130.475 328.136ZM136.642 328.153C136.227 328.153 135.85 328.075 135.512 327.919C135.174 327.76 134.906 327.531 134.707 327.233C134.508 326.932 134.409 326.568 134.409 326.142C134.409 325.767 134.482 325.463 134.63 325.23C134.778 324.994 134.975 324.81 135.222 324.676C135.47 324.543 135.742 324.443 136.041 324.378C136.342 324.31 136.644 324.256 136.948 324.216C137.346 324.165 137.669 324.126 137.916 324.101C138.166 324.072 138.347 324.026 138.461 323.96C138.578 323.895 138.636 323.781 138.636 323.619V323.585C138.636 323.165 138.521 322.838 138.291 322.605C138.063 322.372 137.718 322.256 137.255 322.256C136.775 322.256 136.399 322.361 136.126 322.571C135.853 322.781 135.661 323.006 135.551 323.244L134.596 322.903C134.767 322.506 134.994 322.196 135.278 321.974C135.565 321.75 135.877 321.594 136.215 321.506C136.556 321.415 136.892 321.369 137.221 321.369C137.431 321.369 137.673 321.395 137.945 321.446C138.221 321.494 138.487 321.595 138.742 321.749C139.001 321.902 139.215 322.134 139.386 322.443C139.556 322.753 139.642 323.168 139.642 323.688V328H138.636V327.114H138.585C138.517 327.256 138.403 327.408 138.244 327.57C138.085 327.732 137.873 327.869 137.609 327.983C137.345 328.097 137.022 328.153 136.642 328.153ZM136.795 327.25C137.193 327.25 137.528 327.172 137.801 327.016C138.076 326.859 138.284 326.658 138.423 326.411C138.565 326.163 138.636 325.903 138.636 325.631V324.71C138.593 324.761 138.499 324.808 138.355 324.851C138.213 324.891 138.048 324.926 137.86 324.957C137.676 324.986 137.495 325.011 137.319 325.034C137.146 325.054 137.005 325.071 136.897 325.085C136.636 325.119 136.392 325.175 136.164 325.251C135.94 325.325 135.758 325.437 135.619 325.588C135.482 325.736 135.414 325.937 135.414 326.193C135.414 326.543 135.544 326.807 135.802 326.986C136.063 327.162 136.394 327.25 136.795 327.25ZM141.477 328V321.455H142.449V322.443H142.517C142.636 322.119 142.852 321.857 143.165 321.655C143.477 321.453 143.829 321.352 144.221 321.352C144.295 321.352 144.388 321.354 144.498 321.357C144.609 321.359 144.693 321.364 144.75 321.369V322.392C144.716 322.384 144.638 322.371 144.515 322.354C144.396 322.334 144.27 322.324 144.136 322.324C143.818 322.324 143.534 322.391 143.284 322.524C143.037 322.655 142.841 322.837 142.696 323.07C142.554 323.3 142.483 323.562 142.483 323.858V328H141.477Z" fill="black"/>
<circle cx="38.5" cy="437.5" r="7.5" fill="white"/>
<path d="M38.5 442.5V405C38.5 401.134 41.634 398 45.5 398H121" stroke="white" stroke-width="3"/>
<rect x="65" y="387" width="97" height="21" rx="10" fill="white"/>
<path d="M71.4304 402H70.3224L73.527 393.273H74.6179L77.8224 402H76.7145L74.1065 394.653H74.0384L71.4304 402ZM71.8395 398.591H76.3054V399.528H71.8395V398.591ZM80.0511 398.062V402H79.0455V395.455H80.017V396.477H80.1023C80.2557 396.145 80.4886 395.878 80.8011 395.676C81.1136 395.472 81.517 395.369 82.0114 395.369C82.4545 395.369 82.8423 395.46 83.1747 395.642C83.5071 395.821 83.7656 396.094 83.9503 396.46C84.1349 396.824 84.2273 397.284 84.2273 397.841V402H83.2216V397.909C83.2216 397.395 83.0881 396.994 82.821 396.707C82.554 396.418 82.1875 396.273 81.7216 396.273C81.4006 396.273 81.1136 396.342 80.8608 396.482C80.6108 396.621 80.4134 396.824 80.2685 397.091C80.1236 397.358 80.0511 397.682 80.0511 398.062ZM87.9911 402.153C87.5763 402.153 87.1999 402.075 86.8619 401.919C86.5238 401.76 86.2553 401.531 86.0565 401.233C85.8576 400.932 85.7582 400.568 85.7582 400.142C85.7582 399.767 85.832 399.463 85.9798 399.23C86.1275 398.994 86.3249 398.81 86.5721 398.676C86.8192 398.543 87.092 398.443 87.3903 398.378C87.6914 398.31 87.994 398.256 88.2979 398.216C88.6957 398.165 89.0181 398.126 89.2653 398.101C89.5153 398.072 89.6971 398.026 89.8107 397.96C89.9272 397.895 89.9854 397.781 89.9854 397.619V397.585C89.9854 397.165 89.8704 396.838 89.6403 396.605C89.413 396.372 89.0678 396.256 88.6048 396.256C88.1246 396.256 87.7482 396.361 87.4755 396.571C87.2028 396.781 87.011 397.006 86.9002 397.244L85.9457 396.903C86.1161 396.506 86.3434 396.196 86.6275 395.974C86.9144 395.75 87.2269 395.594 87.565 395.506C87.9059 395.415 88.2411 395.369 88.5707 395.369C88.7809 395.369 89.0224 395.395 89.2951 395.446C89.5707 395.494 89.8363 395.595 90.092 395.749C90.3505 395.902 90.565 396.134 90.7354 396.443C90.9059 396.753 90.9911 397.168 90.9911 397.688V402H89.9854V401.114H89.9343C89.8661 401.256 89.7525 401.408 89.5934 401.57C89.4343 401.732 89.2227 401.869 88.9585 401.983C88.6942 402.097 88.3718 402.153 87.9911 402.153ZM88.1445 401.25C88.5423 401.25 88.8775 401.172 89.1502 401.016C89.4258 400.859 89.6332 400.658 89.7724 400.411C89.9144 400.163 89.9854 399.903 89.9854 399.631V398.71C89.9428 398.761 89.8491 398.808 89.7042 398.851C89.5621 398.891 89.3974 398.926 89.2099 398.957C89.0252 398.986 88.8448 399.011 88.6687 399.034C88.4954 399.054 88.3548 399.071 88.2468 399.085C87.9854 399.119 87.7411 399.175 87.5138 399.251C87.2894 399.325 87.1076 399.437 86.9684 399.588C86.832 399.736 86.7638 399.937 86.7638 400.193C86.7638 400.543 86.8931 400.807 87.1516 400.986C87.413 401.162 87.744 401.25 88.1445 401.25ZM93.8324 393.273V402H92.8267V393.273H93.8324ZM96.3221 404.455C96.1516 404.455 95.9996 404.44 95.8661 404.412C95.7326 404.386 95.6403 404.361 95.5891 404.335L95.8448 403.449C96.0891 403.511 96.305 403.534 96.4925 403.517C96.68 403.5 96.8462 403.416 96.9911 403.266C97.1388 403.118 97.2738 402.878 97.396 402.545L97.5835 402.034L95.163 395.455H96.2539L98.0607 400.67H98.1289L99.9357 395.455H101.027L98.2482 402.955C98.1232 403.293 97.9684 403.572 97.7837 403.794C97.5991 404.018 97.3846 404.185 97.1403 404.293C96.8988 404.401 96.6261 404.455 96.3221 404.455ZM106.99 396.92L106.087 397.176C106.03 397.026 105.946 396.879 105.836 396.737C105.728 396.592 105.58 396.473 105.392 396.379C105.205 396.286 104.965 396.239 104.672 396.239C104.272 396.239 103.938 396.331 103.671 396.516C103.407 396.697 103.275 396.929 103.275 397.21C103.275 397.46 103.365 397.658 103.547 397.803C103.729 397.947 104.013 398.068 104.4 398.165L105.371 398.403C105.956 398.545 106.392 398.763 106.679 399.055C106.966 399.345 107.11 399.719 107.11 400.176C107.11 400.551 107.002 400.886 106.786 401.182C106.573 401.477 106.275 401.71 105.891 401.881C105.507 402.051 105.061 402.136 104.553 402.136C103.885 402.136 103.333 401.991 102.895 401.702C102.458 401.412 102.181 400.989 102.064 400.432L103.019 400.193C103.11 400.545 103.282 400.81 103.534 400.986C103.79 401.162 104.124 401.25 104.536 401.25C105.005 401.25 105.377 401.151 105.652 400.952C105.931 400.75 106.07 400.509 106.07 400.227C106.07 400 105.99 399.81 105.831 399.656C105.672 399.5 105.428 399.384 105.098 399.307L104.007 399.051C103.408 398.909 102.968 398.689 102.686 398.391C102.408 398.089 102.269 397.713 102.269 397.261C102.269 396.892 102.373 396.565 102.58 396.281C102.79 395.997 103.076 395.774 103.436 395.612C103.8 395.45 104.212 395.369 104.672 395.369C105.32 395.369 105.828 395.511 106.198 395.795C106.57 396.08 106.834 396.455 106.99 396.92ZM108.624 402V395.455H109.629V402H108.624ZM109.135 394.364C108.939 394.364 108.77 394.297 108.628 394.163C108.489 394.03 108.419 393.869 108.419 393.682C108.419 393.494 108.489 393.334 108.628 393.2C108.77 393.067 108.939 393 109.135 393C109.331 393 109.499 393.067 109.638 393.2C109.78 393.334 109.851 393.494 109.851 393.682C109.851 393.869 109.78 394.03 109.638 394.163C109.499 394.297 109.331 394.364 109.135 394.364ZM116.108 396.92L115.204 397.176C115.147 397.026 115.064 396.879 114.953 396.737C114.845 396.592 114.697 396.473 114.51 396.379C114.322 396.286 114.082 396.239 113.789 396.239C113.389 396.239 113.055 396.331 112.788 396.516C112.524 396.697 112.392 396.929 112.392 397.21C112.392 397.46 112.483 397.658 112.664 397.803C112.846 397.947 113.13 398.068 113.517 398.165L114.488 398.403C115.074 398.545 115.51 398.763 115.797 399.055C116.083 399.345 116.227 399.719 116.227 400.176C116.227 400.551 116.119 400.886 115.903 401.182C115.69 401.477 115.392 401.71 115.008 401.881C114.625 402.051 114.179 402.136 113.67 402.136C113.002 402.136 112.45 401.991 112.012 401.702C111.575 401.412 111.298 400.989 111.181 400.432L112.136 400.193C112.227 400.545 112.399 400.81 112.652 400.986C112.907 401.162 113.241 401.25 113.653 401.25C114.122 401.25 114.494 401.151 114.77 400.952C115.048 400.75 115.187 400.509 115.187 400.227C115.187 400 115.108 399.81 114.949 399.656C114.789 399.5 114.545 399.384 114.216 399.307L113.125 399.051C112.525 398.909 112.085 398.689 111.804 398.391C111.525 398.089 111.386 397.713 111.386 397.261C111.386 396.892 111.49 396.565 111.697 396.281C111.907 395.997 112.193 395.774 112.554 395.612C112.917 395.45 113.329 395.369 113.789 395.369C114.437 395.369 114.946 395.511 115.315 395.795C115.687 396.08 115.951 396.455 116.108 396.92ZM121.116 402V395.455H122.087V396.477H122.173C122.309 396.128 122.529 395.857 122.833 395.663C123.137 395.467 123.502 395.369 123.928 395.369C124.36 395.369 124.719 395.467 125.006 395.663C125.296 395.857 125.522 396.128 125.684 396.477H125.752C125.92 396.139 126.171 395.871 126.506 395.672C126.842 395.47 127.244 395.369 127.712 395.369C128.298 395.369 128.776 395.553 129.148 395.919C129.521 396.283 129.707 396.849 129.707 397.619V402H128.701V397.619C128.701 397.136 128.569 396.791 128.305 396.584C128.04 396.376 127.729 396.273 127.371 396.273C126.911 396.273 126.555 396.412 126.302 396.69C126.049 396.966 125.923 397.315 125.923 397.739V402H124.9V397.517C124.9 397.145 124.779 396.845 124.538 396.618C124.296 396.388 123.985 396.273 123.604 396.273C123.343 396.273 123.099 396.342 122.871 396.482C122.647 396.621 122.465 396.814 122.326 397.061C122.19 397.305 122.121 397.588 122.121 397.909V402H121.116ZM134.29 402.136C133.659 402.136 133.115 401.997 132.658 401.719C132.203 401.438 131.852 401.045 131.605 400.543C131.361 400.037 131.239 399.449 131.239 398.778C131.239 398.108 131.361 397.517 131.605 397.006C131.852 396.491 132.196 396.091 132.636 395.804C133.08 395.514 133.597 395.369 134.188 395.369C134.528 395.369 134.865 395.426 135.197 395.54C135.53 395.653 135.832 395.838 136.105 396.094C136.378 396.347 136.595 396.682 136.757 397.099C136.919 397.517 137 398.031 137 398.642V399.068H131.955V398.199H135.977C135.977 397.83 135.903 397.5 135.756 397.21C135.611 396.92 135.403 396.692 135.134 396.524C134.866 396.357 134.551 396.273 134.188 396.273C133.787 396.273 133.44 396.372 133.148 396.571C132.858 396.767 132.635 397.023 132.479 397.338C132.322 397.653 132.244 397.991 132.244 398.352V398.932C132.244 399.426 132.33 399.845 132.5 400.189C132.673 400.53 132.913 400.79 133.22 400.969C133.527 401.145 133.884 401.233 134.29 401.233C134.554 401.233 134.793 401.196 135.006 401.122C135.222 401.045 135.408 400.932 135.564 400.781C135.72 400.628 135.841 400.437 135.926 400.21L136.898 400.483C136.795 400.812 136.624 401.102 136.382 401.352C136.141 401.599 135.842 401.793 135.487 401.932C135.132 402.068 134.733 402.136 134.29 402.136ZM141.376 395.455V396.307H137.984V395.455H141.376ZM138.973 393.886H139.979V400.125C139.979 400.409 140.02 400.622 140.102 400.764C140.188 400.903 140.295 400.997 140.426 401.045C140.56 401.091 140.7 401.114 140.848 401.114C140.959 401.114 141.05 401.108 141.121 401.097C141.192 401.082 141.249 401.071 141.291 401.062L141.496 401.966C141.428 401.991 141.332 402.017 141.21 402.043C141.088 402.071 140.933 402.085 140.746 402.085C140.462 402.085 140.183 402.024 139.911 401.902C139.641 401.78 139.416 401.594 139.237 401.344C139.061 401.094 138.973 400.778 138.973 400.398V393.886ZM142.889 402V395.455H143.861V396.443H143.929C144.048 396.119 144.264 395.857 144.577 395.655C144.889 395.453 145.241 395.352 145.634 395.352C145.707 395.352 145.8 395.354 145.911 395.357C146.021 395.359 146.105 395.364 146.162 395.369V396.392C146.128 396.384 146.05 396.371 145.928 396.354C145.808 396.334 145.682 396.324 145.548 396.324C145.23 396.324 144.946 396.391 144.696 396.524C144.449 396.655 144.253 396.837 144.108 397.07C143.966 397.3 143.895 397.562 143.895 397.858V402H142.889ZM147.354 402V395.455H148.36V402H147.354ZM147.865 394.364C147.669 394.364 147.5 394.297 147.358 394.163C147.219 394.03 147.15 393.869 147.15 393.682C147.15 393.494 147.219 393.334 147.358 393.2C147.5 393.067 147.669 393 147.865 393C148.061 393 148.229 393.067 148.368 393.2C148.51 393.334 148.581 393.494 148.581 393.682C148.581 393.869 148.51 394.03 148.368 394.163C148.229 394.297 148.061 394.364 147.865 394.364ZM152.861 402.136C152.247 402.136 151.719 401.991 151.276 401.702C150.832 401.412 150.491 401.013 150.253 400.504C150.014 399.996 149.895 399.415 149.895 398.761C149.895 398.097 150.017 397.51 150.261 397.001C150.509 396.49 150.852 396.091 151.293 395.804C151.736 395.514 152.253 395.369 152.844 395.369C153.304 395.369 153.719 395.455 154.088 395.625C154.457 395.795 154.76 396.034 154.996 396.341C155.232 396.648 155.378 397.006 155.435 397.415H154.429C154.352 397.116 154.182 396.852 153.918 396.622C153.656 396.389 153.304 396.273 152.861 396.273C152.469 396.273 152.125 396.375 151.83 396.58C151.537 396.781 151.308 397.067 151.143 397.436C150.982 397.803 150.901 398.233 150.901 398.727C150.901 399.233 150.98 399.673 151.139 400.048C151.301 400.423 151.528 400.714 151.821 400.922C152.116 401.129 152.463 401.233 152.861 401.233C153.122 401.233 153.359 401.188 153.572 401.097C153.786 401.006 153.966 400.875 154.114 400.705C154.261 400.534 154.366 400.33 154.429 400.091H155.435C155.378 400.477 155.237 400.825 155.013 401.135C154.791 401.442 154.497 401.686 154.131 401.868C153.767 402.047 153.344 402.136 152.861 402.136Z" fill="black"/>
<circle cx="38.5" cy="511.5" r="7.5" fill="white"/>
<path d="M38.5 516.5V479C38.5 475.134 41.634 472 45.5 472H121" stroke="white" stroke-width="3"/>
<rect x="65" y="461" width="97" height="21" rx="10" fill="white"/>
<path d="M78.892 469.455C78.8409 469.023 78.6335 468.688 78.2699 468.449C77.9063 468.21 77.4602 468.091 76.9318 468.091C76.5455 468.091 76.2074 468.153 75.9176 468.278C75.6307 468.403 75.4063 468.575 75.2443 468.794C75.0852 469.013 75.0057 469.261 75.0057 469.54C75.0057 469.773 75.0611 469.973 75.1719 470.141C75.2855 470.305 75.4304 470.443 75.6065 470.554C75.7827 470.662 75.9673 470.751 76.1605 470.822C76.3537 470.891 76.5312 470.946 76.6932 470.989L77.5795 471.227C77.8068 471.287 78.0597 471.369 78.3381 471.474C78.6193 471.58 78.8878 471.723 79.1435 471.905C79.402 472.084 79.6151 472.314 79.7827 472.595C79.9503 472.876 80.0341 473.222 80.0341 473.631C80.0341 474.102 79.9105 474.528 79.6634 474.909C79.419 475.29 79.0611 475.592 78.5895 475.817C78.1207 476.041 77.5511 476.153 76.8807 476.153C76.2557 476.153 75.7145 476.053 75.2571 475.851C74.8026 475.649 74.4446 475.368 74.1832 475.007C73.9247 474.646 73.7784 474.227 73.7443 473.75H74.8352C74.8636 474.08 74.9744 474.352 75.1676 474.568C75.3636 474.781 75.6108 474.94 75.9091 475.045C76.2102 475.148 76.5341 475.199 76.8807 475.199C77.2841 475.199 77.6463 475.134 77.9673 475.003C78.2884 474.869 78.5426 474.685 78.7301 474.449C78.9176 474.21 79.0114 473.932 79.0114 473.614C79.0114 473.324 78.9304 473.088 78.7685 472.906C78.6065 472.724 78.3935 472.577 78.1293 472.463C77.8651 472.349 77.5795 472.25 77.2727 472.165L76.1989 471.858C75.517 471.662 74.9773 471.382 74.5795 471.018C74.1818 470.655 73.983 470.179 73.983 469.591C73.983 469.102 74.1151 468.676 74.3793 468.312C74.6463 467.946 75.0043 467.662 75.4531 467.46C75.9048 467.256 76.4091 467.153 76.9659 467.153C77.5284 467.153 78.0284 467.254 78.4659 467.456C78.9034 467.655 79.25 467.928 79.5057 468.274C79.7642 468.621 79.9006 469.014 79.9148 469.455H78.892ZM84.3796 476.136C83.7489 476.136 83.2049 475.997 82.7475 475.719C82.293 475.438 81.9421 475.045 81.695 474.543C81.4506 474.037 81.3285 473.449 81.3285 472.778C81.3285 472.108 81.4506 471.517 81.695 471.006C81.9421 470.491 82.2859 470.091 82.7262 469.804C83.1694 469.514 83.6864 469.369 84.2773 469.369C84.6183 469.369 84.9549 469.426 85.2873 469.54C85.6197 469.653 85.9222 469.838 86.195 470.094C86.4677 470.347 86.685 470.682 86.8469 471.099C87.0089 471.517 87.0898 472.031 87.0898 472.642V473.068H82.0444V472.199H86.0671C86.0671 471.83 85.9933 471.5 85.8455 471.21C85.7006 470.92 85.4933 470.692 85.2234 470.524C84.9563 470.357 84.641 470.273 84.2773 470.273C83.8768 470.273 83.5302 470.372 83.2376 470.571C82.9478 470.767 82.7248 471.023 82.5685 471.338C82.4123 471.653 82.3342 471.991 82.3342 472.352V472.932C82.3342 473.426 82.4194 473.845 82.5898 474.189C82.7631 474.53 83.0032 474.79 83.31 474.969C83.6168 475.145 83.9734 475.233 84.3796 475.233C84.6438 475.233 84.8825 475.196 85.0955 475.122C85.3114 475.045 85.4975 474.932 85.6538 474.781C85.81 474.628 85.9308 474.437 86.016 474.21L86.9876 474.483C86.8853 474.812 86.7134 475.102 86.4719 475.352C86.2305 475.599 85.9322 475.793 85.5771 475.932C85.2219 476.068 84.8228 476.136 84.3796 476.136ZM91.2617 478.591C90.7759 478.591 90.3583 478.528 90.0089 478.403C89.6594 478.281 89.3683 478.119 89.1353 477.918C88.9052 477.719 88.7219 477.506 88.5856 477.278L89.3867 476.716C89.4776 476.835 89.5927 476.972 89.7319 477.125C89.8711 477.281 90.0614 477.416 90.3029 477.53C90.5472 477.646 90.8668 477.705 91.2617 477.705C91.7901 477.705 92.2262 477.577 92.57 477.321C92.9137 477.065 93.0856 476.665 93.0856 476.119V474.79H93.0004C92.9265 474.909 92.8214 475.057 92.685 475.233C92.5515 475.406 92.3583 475.561 92.1055 475.697C91.8555 475.831 91.5174 475.898 91.0913 475.898C90.5629 475.898 90.0884 475.773 89.668 475.523C89.2504 475.273 88.9194 474.909 88.6751 474.432C88.4336 473.955 88.3129 473.375 88.3129 472.693C88.3129 472.023 88.4308 471.439 88.6665 470.942C88.9023 470.442 89.2305 470.055 89.6509 469.783C90.0714 469.507 90.5572 469.369 91.1083 469.369C91.5344 469.369 91.8725 469.44 92.1225 469.582C92.3754 469.722 92.5685 469.881 92.7021 470.06C92.8384 470.236 92.9435 470.381 93.0174 470.494H93.1197V469.455H94.0913V476.188C94.0913 476.75 93.9634 477.207 93.7077 477.56C93.4549 477.915 93.114 478.175 92.685 478.339C92.2589 478.507 91.7844 478.591 91.2617 478.591ZM91.2276 474.994C91.631 474.994 91.9719 474.902 92.2504 474.717C92.5288 474.533 92.7404 474.267 92.8853 473.92C93.0302 473.574 93.1026 473.159 93.1026 472.676C93.1026 472.205 93.0316 471.788 92.8896 471.428C92.7475 471.067 92.5373 470.784 92.2589 470.58C91.9805 470.375 91.6367 470.273 91.2276 470.273C90.8015 470.273 90.4464 470.381 90.1623 470.597C89.881 470.812 89.6694 471.102 89.5273 471.466C89.3881 471.83 89.3185 472.233 89.3185 472.676C89.3185 473.131 89.3896 473.533 89.5316 473.882C89.6765 474.229 89.8896 474.501 90.1708 474.7C90.4549 474.896 90.8072 474.994 91.2276 474.994ZM95.9322 476V469.455H96.9038V470.477H96.989C97.1254 470.128 97.3455 469.857 97.6495 469.663C97.9535 469.467 98.3185 469.369 98.7447 469.369C99.1765 469.369 99.5359 469.467 99.8228 469.663C100.113 469.857 100.338 470.128 100.5 470.477H100.569C100.736 470.139 100.988 469.871 101.323 469.672C101.658 469.47 102.06 469.369 102.529 469.369C103.114 469.369 103.593 469.553 103.965 469.919C104.337 470.283 104.523 470.849 104.523 471.619V476H103.517V471.619C103.517 471.136 103.385 470.791 103.121 470.584C102.857 470.376 102.546 470.273 102.188 470.273C101.728 470.273 101.371 470.412 101.118 470.69C100.865 470.966 100.739 471.315 100.739 471.739V476H99.7163V471.517C99.7163 471.145 99.5955 470.845 99.354 470.618C99.1126 470.388 98.8015 470.273 98.4208 470.273C98.1594 470.273 97.9151 470.342 97.6879 470.482C97.4634 470.621 97.2816 470.814 97.1424 471.061C97.006 471.305 96.9379 471.588 96.9379 471.909V476H95.9322ZM109.106 476.136C108.475 476.136 107.931 475.997 107.474 475.719C107.02 475.438 106.669 475.045 106.422 474.543C106.177 474.037 106.055 473.449 106.055 472.778C106.055 472.108 106.177 471.517 106.422 471.006C106.669 470.491 107.012 470.091 107.453 469.804C107.896 469.514 108.413 469.369 109.004 469.369C109.345 469.369 109.681 469.426 110.014 469.54C110.346 469.653 110.649 469.838 110.922 470.094C111.194 470.347 111.412 470.682 111.574 471.099C111.735 471.517 111.816 472.031 111.816 472.642V473.068H106.771V472.199H110.794C110.794 471.83 110.72 471.5 110.572 471.21C110.427 470.92 110.22 470.692 109.95 470.524C109.683 470.357 109.368 470.273 109.004 470.273C108.603 470.273 108.257 470.372 107.964 470.571C107.674 470.767 107.451 471.023 107.295 471.338C107.139 471.653 107.061 471.991 107.061 472.352V472.932C107.061 473.426 107.146 473.845 107.316 474.189C107.49 474.53 107.73 474.79 108.037 474.969C108.343 475.145 108.7 475.233 109.106 475.233C109.37 475.233 109.609 475.196 109.822 475.122C110.038 475.045 110.224 474.932 110.38 474.781C110.537 474.628 110.657 474.437 110.743 474.21L111.714 474.483C111.612 474.812 111.44 475.102 111.199 475.352C110.957 475.599 110.659 475.793 110.304 475.932C109.949 476.068 109.549 476.136 109.106 476.136ZM114.352 472.062V476H113.346V469.455H114.318V470.477H114.403C114.556 470.145 114.789 469.878 115.102 469.676C115.414 469.472 115.818 469.369 116.312 469.369C116.755 469.369 117.143 469.46 117.475 469.642C117.808 469.821 118.066 470.094 118.251 470.46C118.436 470.824 118.528 471.284 118.528 471.841V476H117.522V471.909C117.522 471.395 117.389 470.994 117.122 470.707C116.855 470.418 116.488 470.273 116.022 470.273C115.701 470.273 115.414 470.342 115.162 470.482C114.912 470.621 114.714 470.824 114.569 471.091C114.424 471.358 114.352 471.682 114.352 472.062ZM123.212 469.455V470.307H119.82V469.455H123.212ZM120.809 467.886H121.815V474.125C121.815 474.409 121.856 474.622 121.938 474.764C122.023 474.903 122.131 474.997 122.262 475.045C122.396 475.091 122.536 475.114 122.684 475.114C122.795 475.114 122.886 475.108 122.957 475.097C123.028 475.082 123.085 475.071 123.127 475.062L123.332 475.966C123.263 475.991 123.168 476.017 123.046 476.043C122.924 476.071 122.769 476.085 122.582 476.085C122.298 476.085 122.019 476.024 121.746 475.902C121.477 475.78 121.252 475.594 121.073 475.344C120.897 475.094 120.809 474.778 120.809 474.398V467.886ZM131.015 469.455V470.307H127.487V469.455H131.015ZM128.543 476V468.551C128.543 468.176 128.631 467.864 128.808 467.614C128.984 467.364 129.212 467.176 129.494 467.051C129.775 466.926 130.072 466.864 130.384 466.864C130.631 466.864 130.833 466.884 130.989 466.923C131.146 466.963 131.262 467 131.339 467.034L131.049 467.903C130.998 467.886 130.927 467.865 130.836 467.839C130.748 467.814 130.631 467.801 130.487 467.801C130.154 467.801 129.914 467.885 129.766 468.053C129.621 468.22 129.549 468.466 129.549 468.79V476H128.543ZM132.424 476V469.455H133.43V476H132.424ZM132.936 468.364C132.74 468.364 132.571 468.297 132.429 468.163C132.289 468.03 132.22 467.869 132.22 467.682C132.22 467.494 132.289 467.334 132.429 467.2C132.571 467.067 132.74 467 132.936 467C133.132 467 133.299 467.067 133.439 467.2C133.581 467.334 133.652 467.494 133.652 467.682C133.652 467.869 133.581 468.03 133.439 468.163C133.299 468.297 133.132 468.364 132.936 468.364ZM136.278 467.273V476H135.272V467.273H136.278ZM140.966 469.455V470.307H137.574V469.455H140.966ZM138.563 467.886H139.569V474.125C139.569 474.409 139.61 474.622 139.692 474.764C139.777 474.903 139.885 474.997 140.016 475.045C140.15 475.091 140.29 475.114 140.438 475.114C140.549 475.114 140.64 475.108 140.711 475.097C140.782 475.082 140.838 475.071 140.881 475.062L141.086 475.966C141.017 475.991 140.922 476.017 140.8 476.043C140.678 476.071 140.523 476.085 140.336 476.085C140.051 476.085 139.773 476.024 139.5 475.902C139.23 475.78 139.006 475.594 138.827 475.344C138.651 475.094 138.563 474.778 138.563 474.398V467.886ZM145.153 476.136C144.522 476.136 143.978 475.997 143.521 475.719C143.066 475.438 142.716 475.045 142.468 474.543C142.224 474.037 142.102 473.449 142.102 472.778C142.102 472.108 142.224 471.517 142.468 471.006C142.716 470.491 143.059 470.091 143.5 469.804C143.943 469.514 144.46 469.369 145.051 469.369C145.392 469.369 145.728 469.426 146.061 469.54C146.393 469.653 146.696 469.838 146.968 470.094C147.241 470.347 147.458 470.682 147.62 471.099C147.782 471.517 147.863 472.031 147.863 472.642V473.068H142.818V472.199H146.841C146.841 471.83 146.767 471.5 146.619 471.21C146.474 470.92 146.267 470.692 145.997 470.524C145.73 470.357 145.414 470.273 145.051 470.273C144.65 470.273 144.304 470.372 144.011 470.571C143.721 470.767 143.498 471.023 143.342 471.338C143.186 471.653 143.108 471.991 143.108 472.352V472.932C143.108 473.426 143.193 473.845 143.363 474.189C143.537 474.53 143.777 474.79 144.083 474.969C144.39 475.145 144.747 475.233 145.153 475.233C145.417 475.233 145.656 475.196 145.869 475.122C146.085 475.045 146.271 474.932 146.427 474.781C146.583 474.628 146.704 474.437 146.789 474.21L147.761 474.483C147.659 474.812 147.487 475.102 147.245 475.352C147.004 475.599 146.706 475.793 146.35 475.932C145.995 476.068 145.596 476.136 145.153 476.136ZM149.393 476V469.455H150.365V470.443H150.433C150.552 470.119 150.768 469.857 151.081 469.655C151.393 469.453 151.745 469.352 152.137 469.352C152.211 469.352 152.304 469.354 152.414 469.357C152.525 469.359 152.609 469.364 152.666 469.369V470.392C152.632 470.384 152.554 470.371 152.431 470.354C152.312 470.334 152.186 470.324 152.052 470.324C151.734 470.324 151.45 470.391 151.2 470.524C150.953 470.655 150.757 470.837 150.612 471.07C150.47 471.3 150.399 471.562 150.399 471.858V476H149.393Z" fill="black"/>
<circle cx="108.5" cy="836.5" r="7.5" fill="white"/>
<path d="M108.5 841.5V804C108.5 800.134 111.634 797 115.5 797H191" stroke="white" stroke-width="3"/>
<rect x="135" y="786" width="97" height="21" rx="10" fill="white"/>
<path d="M143.844 801V792.273H149.111V793.21H144.901V796.159H148.838V797.097H144.901V800.062H149.179V801H143.844ZM151.629 794.455L153.198 797.131L154.766 794.455H155.925L153.811 797.727L155.925 801H154.766L153.198 798.46L151.629 801H150.47L152.55 797.727L150.47 794.455H151.629ZM157.36 803.455V794.455H158.331V795.494H158.451C158.525 795.381 158.627 795.236 158.758 795.06C158.891 794.881 159.081 794.722 159.329 794.582C159.579 794.44 159.917 794.369 160.343 794.369C160.894 794.369 161.38 794.507 161.8 794.783C162.221 795.058 162.549 795.449 162.785 795.955C163.02 796.46 163.138 797.057 163.138 797.744C163.138 798.438 163.02 799.038 162.785 799.547C162.549 800.053 162.222 800.445 161.805 800.723C161.387 800.999 160.905 801.136 160.36 801.136C159.939 801.136 159.603 801.067 159.35 800.928C159.097 800.786 158.903 800.625 158.766 800.446C158.63 800.264 158.525 800.114 158.451 799.994H158.366V803.455H157.36ZM158.349 797.727C158.349 798.222 158.421 798.658 158.566 799.036C158.711 799.411 158.922 799.705 159.201 799.918C159.479 800.128 159.82 800.233 160.224 800.233C160.644 800.233 160.995 800.122 161.276 799.901C161.56 799.676 161.773 799.375 161.915 798.997C162.06 798.616 162.133 798.193 162.133 797.727C162.133 797.267 162.062 796.852 161.92 796.483C161.78 796.111 161.569 795.817 161.285 795.601C161.003 795.382 160.65 795.273 160.224 795.273C159.814 795.273 159.471 795.376 159.192 795.584C158.914 795.788 158.704 796.075 158.562 796.445C158.42 796.811 158.349 797.239 158.349 797.727ZM167.331 801.136C166.741 801.136 166.222 800.996 165.776 800.714C165.333 800.433 164.986 800.04 164.736 799.534C164.489 799.028 164.366 798.437 164.366 797.761C164.366 797.08 164.489 796.484 164.736 795.976C164.986 795.467 165.333 795.072 165.776 794.791C166.222 794.51 166.741 794.369 167.331 794.369C167.922 794.369 168.439 794.51 168.883 794.791C169.329 795.072 169.675 795.467 169.922 795.976C170.172 796.484 170.297 797.08 170.297 797.761C170.297 798.437 170.172 799.028 169.922 799.534C169.675 800.04 169.329 800.433 168.883 800.714C168.439 800.996 167.922 801.136 167.331 801.136ZM167.331 800.233C167.78 800.233 168.15 800.118 168.439 799.888C168.729 799.658 168.944 799.355 169.083 798.98C169.222 798.605 169.292 798.199 169.292 797.761C169.292 797.324 169.222 796.916 169.083 796.538C168.944 796.161 168.729 795.855 168.439 795.622C168.15 795.389 167.78 795.273 167.331 795.273C166.883 795.273 166.513 795.389 166.224 795.622C165.934 795.855 165.719 796.161 165.58 796.538C165.441 796.916 165.371 797.324 165.371 797.761C165.371 798.199 165.441 798.605 165.58 798.98C165.719 799.355 165.934 799.658 166.224 799.888C166.513 800.118 166.883 800.233 167.331 800.233ZM171.833 801V794.455H172.804V795.443H172.872C172.992 795.119 173.208 794.857 173.52 794.655C173.833 794.453 174.185 794.352 174.577 794.352C174.651 794.352 174.743 794.354 174.854 794.357C174.965 794.359 175.048 794.364 175.105 794.369V795.392C175.071 795.384 174.993 795.371 174.871 795.354C174.752 795.334 174.625 795.324 174.492 795.324C174.173 795.324 173.889 795.391 173.639 795.524C173.392 795.655 173.196 795.837 173.051 796.07C172.909 796.3 172.838 796.562 172.838 796.858V801H171.833ZM179.554 794.455V795.307H176.162V794.455H179.554ZM177.151 792.886H178.156V799.125C178.156 799.409 178.198 799.622 178.28 799.764C178.365 799.903 178.473 799.997 178.604 800.045C178.737 800.091 178.878 800.114 179.026 800.114C179.137 800.114 179.227 800.108 179.298 800.097C179.369 800.082 179.426 800.071 179.469 800.062L179.673 800.966C179.605 800.991 179.51 801.017 179.388 801.043C179.266 801.071 179.111 801.085 178.923 801.085C178.639 801.085 178.361 801.024 178.088 800.902C177.818 800.78 177.594 800.594 177.415 800.344C177.239 800.094 177.151 799.778 177.151 799.398V792.886ZM186.368 801.153C185.953 801.153 185.577 801.075 185.239 800.919C184.901 800.76 184.632 800.531 184.433 800.233C184.235 799.932 184.135 799.568 184.135 799.142C184.135 798.767 184.209 798.463 184.357 798.23C184.504 797.994 184.702 797.81 184.949 797.676C185.196 797.543 185.469 797.443 185.767 797.378C186.068 797.31 186.371 797.256 186.675 797.216C187.073 797.165 187.395 797.126 187.642 797.101C187.892 797.072 188.074 797.026 188.188 796.96C188.304 796.895 188.362 796.781 188.362 796.619V796.585C188.362 796.165 188.247 795.838 188.017 795.605C187.79 795.372 187.445 795.256 186.982 795.256C186.502 795.256 186.125 795.361 185.852 795.571C185.58 795.781 185.388 796.006 185.277 796.244L184.323 795.903C184.493 795.506 184.72 795.196 185.004 794.974C185.291 794.75 185.604 794.594 185.942 794.506C186.283 794.415 186.618 794.369 186.948 794.369C187.158 794.369 187.399 794.395 187.672 794.446C187.948 794.494 188.213 794.595 188.469 794.749C188.727 794.902 188.942 795.134 189.112 795.443C189.283 795.753 189.368 796.168 189.368 796.688V801H188.362V800.114H188.311C188.243 800.256 188.129 800.408 187.97 800.57C187.811 800.732 187.6 800.869 187.335 800.983C187.071 801.097 186.749 801.153 186.368 801.153ZM186.521 800.25C186.919 800.25 187.254 800.172 187.527 800.016C187.803 799.859 188.01 799.658 188.149 799.411C188.291 799.163 188.362 798.903 188.362 798.631V797.71C188.32 797.761 188.226 797.808 188.081 797.851C187.939 797.891 187.774 797.926 187.587 797.957C187.402 797.986 187.222 798.011 187.046 798.034C186.872 798.054 186.732 798.071 186.624 798.085C186.362 798.119 186.118 798.175 185.891 798.251C185.666 798.325 185.485 798.437 185.345 798.588C185.209 798.736 185.141 798.937 185.141 799.193C185.141 799.543 185.27 799.807 185.529 799.986C185.79 800.162 186.121 800.25 186.521 800.25ZM195.84 795.92L194.937 796.176C194.88 796.026 194.796 795.879 194.685 795.737C194.577 795.592 194.43 795.473 194.242 795.379C194.055 795.286 193.814 795.239 193.522 795.239C193.121 795.239 192.787 795.331 192.52 795.516C192.256 795.697 192.124 795.929 192.124 796.21C192.124 796.46 192.215 796.658 192.397 796.803C192.579 796.947 192.863 797.068 193.249 797.165L194.221 797.403C194.806 797.545 195.242 797.763 195.529 798.055C195.816 798.345 195.959 798.719 195.959 799.176C195.959 799.551 195.851 799.886 195.635 800.182C195.422 800.477 195.124 800.71 194.741 800.881C194.357 801.051 193.911 801.136 193.403 801.136C192.735 801.136 192.182 800.991 191.745 800.702C191.307 800.412 191.03 799.989 190.914 799.432L191.868 799.193C191.959 799.545 192.131 799.81 192.384 799.986C192.64 800.162 192.974 800.25 193.385 800.25C193.854 800.25 194.226 800.151 194.502 799.952C194.78 799.75 194.92 799.509 194.92 799.227C194.92 799 194.84 798.81 194.681 798.656C194.522 798.5 194.278 798.384 193.948 798.307L192.857 798.051C192.258 797.909 191.817 797.689 191.536 797.391C191.258 797.089 191.118 796.713 191.118 796.261C191.118 795.892 191.222 795.565 191.43 795.281C191.64 794.997 191.925 794.774 192.286 794.612C192.65 794.45 193.062 794.369 193.522 794.369C194.17 794.369 194.678 794.511 195.047 794.795C195.42 795.08 195.684 795.455 195.84 795.92ZM200.985 801V792.273H203.933C204.618 792.273 205.178 792.396 205.612 792.643C206.05 792.888 206.374 793.219 206.584 793.636C206.794 794.054 206.899 794.52 206.899 795.034C206.899 795.548 206.794 796.016 206.584 796.436C206.377 796.857 206.056 797.192 205.621 797.442C205.186 797.689 204.629 797.812 203.95 797.812H201.837V796.875H203.916C204.385 796.875 204.762 796.794 205.046 796.632C205.33 796.47 205.536 796.251 205.664 795.976C205.794 795.697 205.86 795.384 205.86 795.034C205.86 794.685 205.794 794.372 205.664 794.097C205.536 793.821 205.328 793.605 205.041 793.449C204.754 793.29 204.374 793.21 203.899 793.21H202.041V801H200.985ZM211.295 801H208.602V792.273H211.414C212.261 792.273 212.985 792.447 213.588 792.797C214.19 793.143 214.651 793.642 214.972 794.293C215.294 794.94 215.454 795.716 215.454 796.619C215.454 797.528 215.292 798.311 214.968 798.967C214.644 799.621 214.173 800.124 213.553 800.476C212.934 800.825 212.181 801 211.295 801ZM209.659 800.062H211.227C211.948 800.062 212.546 799.923 213.021 799.645C213.495 799.366 213.849 798.97 214.082 798.456C214.315 797.942 214.431 797.33 214.431 796.619C214.431 795.915 214.316 795.308 214.086 794.8C213.856 794.288 213.512 793.896 213.055 793.624C212.597 793.348 212.028 793.21 211.346 793.21H209.659V800.062ZM217.227 801V792.273H222.46V793.21H218.284V796.159H222.068V797.097H218.284V801H217.227Z" fill="black"/>
<circle cx="1261.5" cy="401.5" r="7.5" fill="white"/>
<path d="M1179 403V403C1179 402.448 1179.45 402 1180 402H1262" stroke="white" stroke-width="3"/>
<rect x="1120" y="391" width="97" height="21" rx="10" fill="white"/>
<path d="M1136.73 400H1135.68C1135.61 399.696 1135.5 399.429 1135.35 399.199C1135.19 398.969 1135.01 398.776 1134.78 398.619C1134.57 398.46 1134.32 398.341 1134.06 398.261C1133.79 398.182 1133.51 398.142 1133.22 398.142C1132.69 398.142 1132.21 398.276 1131.78 398.543C1131.36 398.81 1131.02 399.203 1130.77 399.723C1130.52 400.243 1130.39 400.881 1130.39 401.636C1130.39 402.392 1130.52 403.03 1130.77 403.55C1131.02 404.07 1131.36 404.463 1131.78 404.73C1132.21 404.997 1132.69 405.131 1133.22 405.131C1133.51 405.131 1133.79 405.091 1134.06 405.011C1134.32 404.932 1134.57 404.814 1134.78 404.658C1135.01 404.499 1135.19 404.304 1135.35 404.074C1135.5 403.841 1135.61 403.574 1135.68 403.273H1136.73C1136.65 403.719 1136.51 404.118 1136.3 404.47C1136.09 404.822 1135.83 405.122 1135.51 405.369C1135.2 405.614 1134.85 405.8 1134.46 405.928C1134.07 406.055 1133.66 406.119 1133.22 406.119C1132.48 406.119 1131.81 405.938 1131.23 405.574C1130.66 405.21 1130.2 404.693 1129.87 404.023C1129.53 403.352 1129.37 402.557 1129.37 401.636C1129.37 400.716 1129.53 399.92 1129.87 399.25C1130.2 398.58 1130.66 398.062 1131.23 397.699C1131.81 397.335 1132.48 397.153 1133.22 397.153C1133.66 397.153 1134.07 397.217 1134.46 397.345C1134.85 397.473 1135.2 397.661 1135.51 397.908C1135.83 398.152 1136.09 398.45 1136.3 398.803C1136.51 399.152 1136.65 399.551 1136.73 400ZM1140.96 406.136C1140.37 406.136 1139.85 405.996 1139.41 405.714C1138.96 405.433 1138.62 405.04 1138.37 404.534C1138.12 404.028 1138 403.437 1138 402.761C1138 402.08 1138.12 401.484 1138.37 400.976C1138.62 400.467 1138.96 400.072 1139.41 399.791C1139.85 399.51 1140.37 399.369 1140.96 399.369C1141.55 399.369 1142.07 399.51 1142.51 399.791C1142.96 400.072 1143.31 400.467 1143.55 400.976C1143.8 401.484 1143.93 402.08 1143.93 402.761C1143.93 403.437 1143.8 404.028 1143.55 404.534C1143.31 405.04 1142.96 405.433 1142.51 405.714C1142.07 405.996 1141.55 406.136 1140.96 406.136ZM1140.96 405.233C1141.41 405.233 1141.78 405.118 1142.07 404.888C1142.36 404.658 1142.57 404.355 1142.71 403.98C1142.85 403.605 1142.92 403.199 1142.92 402.761C1142.92 402.324 1142.85 401.916 1142.71 401.538C1142.57 401.161 1142.36 400.855 1142.07 400.622C1141.78 400.389 1141.41 400.273 1140.96 400.273C1140.51 400.273 1140.14 400.389 1139.85 400.622C1139.56 400.855 1139.35 401.161 1139.21 401.538C1139.07 401.916 1139 402.324 1139 402.761C1139 403.199 1139.07 403.605 1139.21 403.98C1139.35 404.355 1139.56 404.658 1139.85 404.888C1140.14 405.118 1140.51 405.233 1140.96 405.233ZM1146.47 397.273V406H1145.46V397.273H1146.47ZM1149.32 397.273V406H1148.31V397.273H1149.32ZM1153.08 406.153C1152.67 406.153 1152.29 406.075 1151.96 405.919C1151.62 405.76 1151.35 405.531 1151.15 405.233C1150.95 404.932 1150.85 404.568 1150.85 404.142C1150.85 403.767 1150.93 403.463 1151.07 403.23C1151.22 402.994 1151.42 402.81 1151.67 402.676C1151.91 402.543 1152.19 402.443 1152.48 402.378C1152.79 402.31 1153.09 402.256 1153.39 402.216C1153.79 402.165 1154.11 402.126 1154.36 402.101C1154.61 402.072 1154.79 402.026 1154.9 401.96C1155.02 401.895 1155.08 401.781 1155.08 401.619V401.585C1155.08 401.165 1154.96 400.838 1154.73 400.605C1154.51 400.372 1154.16 400.256 1153.7 400.256C1153.22 400.256 1152.84 400.361 1152.57 400.571C1152.3 400.781 1152.1 401.006 1151.99 401.244L1151.04 400.903C1151.21 400.506 1151.44 400.196 1151.72 399.974C1152.01 399.75 1152.32 399.594 1152.66 399.506C1153 399.415 1153.33 399.369 1153.66 399.369C1153.87 399.369 1154.12 399.395 1154.39 399.446C1154.66 399.494 1154.93 399.595 1155.19 399.749C1155.44 399.902 1155.66 400.134 1155.83 400.443C1156 400.753 1156.08 401.168 1156.08 401.688V406H1155.08V405.114H1155.03C1154.96 405.256 1154.85 405.408 1154.69 405.57C1154.53 405.732 1154.32 405.869 1154.05 405.983C1153.79 406.097 1153.47 406.153 1153.08 406.153ZM1153.24 405.25C1153.64 405.25 1153.97 405.172 1154.24 405.016C1154.52 404.859 1154.73 404.658 1154.87 404.411C1155.01 404.163 1155.08 403.903 1155.08 403.631V402.71C1155.04 402.761 1154.94 402.808 1154.8 402.851C1154.66 402.891 1154.49 402.926 1154.3 402.957C1154.12 402.986 1153.94 403.011 1153.76 403.034C1153.59 403.054 1153.45 403.071 1153.34 403.085C1153.08 403.119 1152.83 403.175 1152.61 403.251C1152.38 403.325 1152.2 403.437 1152.06 403.588C1151.93 403.736 1151.86 403.937 1151.86 404.193C1151.86 404.543 1151.99 404.807 1152.25 404.986C1152.51 405.162 1152.84 405.25 1153.24 405.25ZM1157.92 408.455V399.455H1158.89V400.494H1159.01C1159.09 400.381 1159.19 400.236 1159.32 400.06C1159.45 399.881 1159.64 399.722 1159.89 399.582C1160.14 399.44 1160.48 399.369 1160.9 399.369C1161.45 399.369 1161.94 399.507 1162.36 399.783C1162.78 400.058 1163.11 400.449 1163.35 400.955C1163.58 401.46 1163.7 402.057 1163.7 402.744C1163.7 403.438 1163.58 404.038 1163.35 404.547C1163.11 405.053 1162.78 405.445 1162.37 405.723C1161.95 405.999 1161.47 406.136 1160.92 406.136C1160.5 406.136 1160.16 406.067 1159.91 405.928C1159.66 405.786 1159.46 405.625 1159.33 405.446C1159.19 405.264 1159.09 405.114 1159.01 404.994H1158.93V408.455H1157.92ZM1158.91 402.727C1158.91 403.222 1158.98 403.658 1159.13 404.036C1159.27 404.411 1159.48 404.705 1159.76 404.918C1160.04 405.128 1160.38 405.233 1160.78 405.233C1161.2 405.233 1161.56 405.122 1161.84 404.901C1162.12 404.676 1162.33 404.375 1162.48 403.997C1162.62 403.616 1162.69 403.193 1162.69 402.727C1162.69 402.267 1162.62 401.852 1162.48 401.483C1162.34 401.111 1162.13 400.817 1161.85 400.601C1161.56 400.382 1161.21 400.273 1160.78 400.273C1160.38 400.273 1160.03 400.376 1159.75 400.584C1159.47 400.788 1159.26 401.075 1159.12 401.445C1158.98 401.811 1158.91 402.239 1158.91 402.727ZM1169.87 400.92L1168.97 401.176C1168.91 401.026 1168.83 400.879 1168.71 400.737C1168.61 400.592 1168.46 400.473 1168.27 400.379C1168.08 400.286 1167.84 400.239 1167.55 400.239C1167.15 400.239 1166.82 400.331 1166.55 400.516C1166.29 400.697 1166.15 400.929 1166.15 401.21C1166.15 401.46 1166.24 401.658 1166.43 401.803C1166.61 401.947 1166.89 402.068 1167.28 402.165L1168.25 402.403C1168.84 402.545 1169.27 402.763 1169.56 403.055C1169.85 403.345 1169.99 403.719 1169.99 404.176C1169.99 404.551 1169.88 404.886 1169.66 405.182C1169.45 405.477 1169.15 405.71 1168.77 405.881C1168.39 406.051 1167.94 406.136 1167.43 406.136C1166.76 406.136 1166.21 405.991 1165.77 405.702C1165.34 405.412 1165.06 404.989 1164.94 404.432L1165.9 404.193C1165.99 404.545 1166.16 404.81 1166.41 404.986C1166.67 405.162 1167 405.25 1167.41 405.25C1167.88 405.25 1168.26 405.151 1168.53 404.952C1168.81 404.75 1168.95 404.509 1168.95 404.227C1168.95 404 1168.87 403.81 1168.71 403.656C1168.55 403.5 1168.31 403.384 1167.98 403.307L1166.89 403.051C1166.29 402.909 1165.85 402.689 1165.57 402.391C1165.29 402.089 1165.15 401.713 1165.15 401.261C1165.15 400.892 1165.25 400.565 1165.46 400.281C1165.67 399.997 1165.95 399.774 1166.32 399.612C1166.68 399.45 1167.09 399.369 1167.55 399.369C1168.2 399.369 1168.71 399.511 1169.08 399.795C1169.45 400.08 1169.71 400.455 1169.87 400.92ZM1174.25 406.136C1173.62 406.136 1173.07 405.997 1172.61 405.719C1172.16 405.438 1171.81 405.045 1171.56 404.543C1171.32 404.037 1171.2 403.449 1171.2 402.778C1171.2 402.108 1171.32 401.517 1171.56 401.006C1171.81 400.491 1172.15 400.091 1172.59 399.804C1173.04 399.514 1173.55 399.369 1174.14 399.369C1174.49 399.369 1174.82 399.426 1175.15 399.54C1175.49 399.653 1175.79 399.838 1176.06 400.094C1176.33 400.347 1176.55 400.682 1176.71 401.099C1176.88 401.517 1176.96 402.031 1176.96 402.642V403.068H1171.91V402.199H1175.93C1175.93 401.83 1175.86 401.5 1175.71 401.21C1175.57 400.92 1175.36 400.692 1175.09 400.524C1174.82 400.357 1174.51 400.273 1174.14 400.273C1173.74 400.273 1173.4 400.372 1173.1 400.571C1172.81 400.767 1172.59 401.023 1172.44 401.338C1172.28 401.653 1172.2 401.991 1172.2 402.352V402.932C1172.2 403.426 1172.29 403.845 1172.46 404.189C1172.63 404.53 1172.87 404.79 1173.18 404.969C1173.48 405.145 1173.84 405.233 1174.25 405.233C1174.51 405.233 1174.75 405.196 1174.96 405.122C1175.18 405.045 1175.36 404.932 1175.52 404.781C1175.68 404.628 1175.8 404.437 1175.88 404.21L1176.85 404.483C1176.75 404.812 1176.58 405.102 1176.34 405.352C1176.1 405.599 1175.8 405.793 1175.44 405.932C1175.09 406.068 1174.69 406.136 1174.25 406.136ZM1184.71 399.455V400.307H1181.32V399.455H1184.71ZM1182.31 397.886H1183.31V404.125C1183.31 404.409 1183.35 404.622 1183.43 404.764C1183.52 404.903 1183.63 404.997 1183.76 405.045C1183.89 405.091 1184.03 405.114 1184.18 405.114C1184.29 405.114 1184.38 405.108 1184.45 405.097C1184.52 405.082 1184.58 405.071 1184.62 405.062L1184.83 405.966C1184.76 405.991 1184.66 406.017 1184.54 406.043C1184.42 406.071 1184.27 406.085 1184.08 406.085C1183.79 406.085 1183.52 406.024 1183.24 405.902C1182.97 405.78 1182.75 405.594 1182.57 405.344C1182.39 405.094 1182.31 404.778 1182.31 404.398V397.886ZM1188.15 406.153C1187.73 406.153 1187.36 406.075 1187.02 405.919C1186.68 405.76 1186.41 405.531 1186.21 405.233C1186.01 404.932 1185.91 404.568 1185.91 404.142C1185.91 403.767 1185.99 403.463 1186.14 403.23C1186.28 402.994 1186.48 402.81 1186.73 402.676C1186.98 402.543 1187.25 402.443 1187.55 402.378C1187.85 402.31 1188.15 402.256 1188.45 402.216C1188.85 402.165 1189.17 402.126 1189.42 402.101C1189.67 402.072 1189.85 402.026 1189.97 401.96C1190.08 401.895 1190.14 401.781 1190.14 401.619V401.585C1190.14 401.165 1190.03 400.838 1189.8 400.605C1189.57 400.372 1189.22 400.256 1188.76 400.256C1188.28 400.256 1187.9 400.361 1187.63 400.571C1187.36 400.781 1187.17 401.006 1187.06 401.244L1186.1 400.903C1186.27 400.506 1186.5 400.196 1186.78 399.974C1187.07 399.75 1187.38 399.594 1187.72 399.506C1188.06 399.415 1188.4 399.369 1188.73 399.369C1188.94 399.369 1189.18 399.395 1189.45 399.446C1189.73 399.494 1189.99 399.595 1190.25 399.749C1190.51 399.902 1190.72 400.134 1190.89 400.443C1191.06 400.753 1191.15 401.168 1191.15 401.688V406H1190.14V405.114H1190.09C1190.02 405.256 1189.91 405.408 1189.75 405.57C1189.59 405.732 1189.38 405.869 1189.11 405.983C1188.85 406.097 1188.53 406.153 1188.15 406.153ZM1188.3 405.25C1188.7 405.25 1189.03 405.172 1189.31 405.016C1189.58 404.859 1189.79 404.658 1189.93 404.411C1190.07 404.163 1190.14 403.903 1190.14 403.631V402.71C1190.1 402.761 1190.01 402.808 1189.86 402.851C1189.72 402.891 1189.55 402.926 1189.37 402.957C1189.18 402.986 1189 403.011 1188.82 403.034C1188.65 403.054 1188.51 403.071 1188.4 403.085C1188.14 403.119 1187.9 403.175 1187.67 403.251C1187.45 403.325 1187.26 403.437 1187.12 403.588C1186.99 403.736 1186.92 403.937 1186.92 404.193C1186.92 404.543 1187.05 404.807 1187.31 404.986C1187.57 405.162 1187.9 405.25 1188.3 405.25ZM1193.12 406V397.273H1194.12V400.494H1194.21C1194.28 400.381 1194.39 400.236 1194.52 400.06C1194.65 399.881 1194.84 399.722 1195.09 399.582C1195.34 399.44 1195.68 399.369 1196.1 399.369C1196.65 399.369 1197.14 399.507 1197.56 399.783C1197.98 400.058 1198.31 400.449 1198.54 400.955C1198.78 401.46 1198.9 402.057 1198.9 402.744C1198.9 403.438 1198.78 404.038 1198.54 404.547C1198.31 405.053 1197.98 405.445 1197.56 405.723C1197.15 405.999 1196.66 406.136 1196.12 406.136C1195.7 406.136 1195.36 406.067 1195.11 405.928C1194.86 405.786 1194.66 405.625 1194.53 405.446C1194.39 405.264 1194.28 405.114 1194.21 404.994H1194.09V406H1193.12ZM1194.11 402.727C1194.11 403.222 1194.18 403.658 1194.33 404.036C1194.47 404.411 1194.68 404.705 1194.96 404.918C1195.24 405.128 1195.58 405.233 1195.98 405.233C1196.4 405.233 1196.75 405.122 1197.04 404.901C1197.32 404.676 1197.53 404.375 1197.67 403.997C1197.82 403.616 1197.89 403.193 1197.89 402.727C1197.89 402.267 1197.82 401.852 1197.68 401.483C1197.54 401.111 1197.33 400.817 1197.04 400.601C1196.76 400.382 1196.41 400.273 1195.98 400.273C1195.57 400.273 1195.23 400.376 1194.95 400.584C1194.67 400.788 1194.46 401.075 1194.32 401.445C1194.18 401.811 1194.11 402.239 1194.11 402.727ZM1201.44 397.273V406H1200.44V397.273H1201.44ZM1206.03 406.136C1205.4 406.136 1204.85 405.997 1204.4 405.719C1203.94 405.438 1203.59 405.045 1203.34 404.543C1203.1 404.037 1202.98 403.449 1202.98 402.778C1202.98 402.108 1203.1 401.517 1203.34 401.006C1203.59 400.491 1203.93 400.091 1204.37 399.804C1204.82 399.514 1205.33 399.369 1205.93 399.369C1206.27 399.369 1206.6 399.426 1206.94 399.54C1207.27 399.653 1207.57 399.838 1207.84 400.094C1208.12 400.347 1208.33 400.682 1208.5 401.099C1208.66 401.517 1208.74 402.031 1208.74 402.642V403.068H1203.69V402.199H1207.72C1207.72 401.83 1207.64 401.5 1207.49 401.21C1207.35 400.92 1207.14 400.692 1206.87 400.524C1206.6 400.357 1206.29 400.273 1205.93 400.273C1205.53 400.273 1205.18 400.372 1204.89 400.571C1204.6 400.767 1204.37 401.023 1204.22 401.338C1204.06 401.653 1203.98 401.991 1203.98 402.352V402.932C1203.98 403.426 1204.07 403.845 1204.24 404.189C1204.41 404.53 1204.65 404.79 1204.96 404.969C1205.27 405.145 1205.62 405.233 1206.03 405.233C1206.29 405.233 1206.53 405.196 1206.74 405.122C1206.96 405.045 1207.15 404.932 1207.3 404.781C1207.46 404.628 1207.58 404.437 1207.66 404.21L1208.64 404.483C1208.53 404.812 1208.36 405.102 1208.12 405.352C1207.88 405.599 1207.58 405.793 1207.23 405.932C1206.87 406.068 1206.47 406.136 1206.03 406.136Z" fill="black"/>
<circle cx="554.5" cy="401.5" r="7.5" fill="white"/>
<path d="M555 407V407C555 404.239 557.239 402 560 402H637" stroke="white" stroke-width="3"/>
<rect x="607" y="391" width="97" height="21" rx="10" fill="white"/>
<path d="M618.787 399.455C618.735 399.023 618.528 398.688 618.164 398.449C617.801 398.21 617.355 398.091 616.826 398.091C616.44 398.091 616.102 398.153 615.812 398.278C615.525 398.403 615.301 398.575 615.139 398.794C614.98 399.013 614.9 399.261 614.9 399.54C614.9 399.773 614.956 399.973 615.066 400.141C615.18 400.305 615.325 400.443 615.501 400.554C615.677 400.662 615.862 400.751 616.055 400.822C616.248 400.891 616.426 400.946 616.588 400.989L617.474 401.227C617.701 401.287 617.954 401.369 618.233 401.474C618.514 401.58 618.782 401.723 619.038 401.905C619.297 402.084 619.51 402.314 619.677 402.595C619.845 402.876 619.929 403.222 619.929 403.631C619.929 404.102 619.805 404.528 619.558 404.909C619.314 405.29 618.956 405.592 618.484 405.817C618.015 406.041 617.446 406.153 616.775 406.153C616.15 406.153 615.609 406.053 615.152 405.851C614.697 405.649 614.339 405.368 614.078 405.007C613.819 404.646 613.673 404.227 613.639 403.75H614.73C614.758 404.08 614.869 404.352 615.062 404.568C615.258 404.781 615.505 404.94 615.804 405.045C616.105 405.148 616.429 405.199 616.775 405.199C617.179 405.199 617.541 405.134 617.862 405.003C618.183 404.869 618.437 404.685 618.625 404.449C618.812 404.21 618.906 403.932 618.906 403.614C618.906 403.324 618.825 403.088 618.663 402.906C618.501 402.724 618.288 402.577 618.024 402.463C617.76 402.349 617.474 402.25 617.167 402.165L616.093 401.858C615.412 401.662 614.872 401.382 614.474 401.018C614.076 400.655 613.877 400.179 613.877 399.591C613.877 399.102 614.01 398.676 614.274 398.312C614.541 397.946 614.899 397.662 615.348 397.46C615.799 397.256 616.304 397.153 616.86 397.153C617.423 397.153 617.923 397.254 618.36 397.456C618.798 397.655 619.145 397.928 619.4 398.274C619.659 398.621 619.795 399.014 619.809 399.455H618.787ZM624.274 406.136C623.643 406.136 623.099 405.997 622.642 405.719C622.188 405.438 621.837 405.045 621.589 404.543C621.345 404.037 621.223 403.449 621.223 402.778C621.223 402.108 621.345 401.517 621.589 401.006C621.837 400.491 622.18 400.091 622.621 399.804C623.064 399.514 623.581 399.369 624.172 399.369C624.513 399.369 624.849 399.426 625.182 399.54C625.514 399.653 625.817 399.838 626.089 400.094C626.362 400.347 626.58 400.682 626.741 401.099C626.903 401.517 626.984 402.031 626.984 402.642V403.068H621.939V402.199H625.962C625.962 401.83 625.888 401.5 625.74 401.21C625.595 400.92 625.388 400.692 625.118 400.524C624.851 400.357 624.536 400.273 624.172 400.273C623.771 400.273 623.425 400.372 623.132 400.571C622.842 400.767 622.619 401.023 622.463 401.338C622.307 401.653 622.229 401.991 622.229 402.352V402.932C622.229 403.426 622.314 403.845 622.484 404.189C622.658 404.53 622.898 404.79 623.205 404.969C623.511 405.145 623.868 405.233 624.274 405.233C624.538 405.233 624.777 405.196 624.99 405.122C625.206 405.045 625.392 404.932 625.548 404.781C625.705 404.628 625.825 404.437 625.911 404.21L626.882 404.483C626.78 404.812 626.608 405.102 626.366 405.352C626.125 405.599 625.827 405.793 625.472 405.932C625.116 406.068 624.717 406.136 624.274 406.136ZM630.44 406.153C630.026 406.153 629.649 406.075 629.311 405.919C628.973 405.76 628.705 405.531 628.506 405.233C628.307 404.932 628.207 404.568 628.207 404.142C628.207 403.767 628.281 403.463 628.429 403.23C628.577 402.994 628.774 402.81 629.021 402.676C629.268 402.543 629.541 402.443 629.839 402.378C630.141 402.31 630.443 402.256 630.747 402.216C631.145 402.165 631.467 402.126 631.714 402.101C631.964 402.072 632.146 402.026 632.26 401.96C632.376 401.895 632.435 401.781 632.435 401.619V401.585C632.435 401.165 632.32 400.838 632.089 400.605C631.862 400.372 631.517 400.256 631.054 400.256C630.574 400.256 630.197 400.361 629.925 400.571C629.652 400.781 629.46 401.006 629.349 401.244L628.395 400.903C628.565 400.506 628.793 400.196 629.077 399.974C629.364 399.75 629.676 399.594 630.014 399.506C630.355 399.415 630.69 399.369 631.02 399.369C631.23 399.369 631.472 399.395 631.744 399.446C632.02 399.494 632.286 399.595 632.541 399.749C632.8 399.902 633.014 400.134 633.185 400.443C633.355 400.753 633.44 401.168 633.44 401.688V406H632.435V405.114H632.384C632.315 405.256 632.202 405.408 632.043 405.57C631.884 405.732 631.672 405.869 631.408 405.983C631.143 406.097 630.821 406.153 630.44 406.153ZM630.594 405.25C630.991 405.25 631.327 405.172 631.599 405.016C631.875 404.859 632.082 404.658 632.222 404.411C632.364 404.163 632.435 403.903 632.435 403.631V402.71C632.392 402.761 632.298 402.808 632.153 402.851C632.011 402.891 631.847 402.926 631.659 402.957C631.474 402.986 631.294 403.011 631.118 403.034C630.945 403.054 630.804 403.071 630.696 403.085C630.435 403.119 630.19 403.175 629.963 403.251C629.739 403.325 629.557 403.437 629.418 403.588C629.281 403.736 629.213 403.937 629.213 404.193C629.213 404.543 629.342 404.807 629.601 404.986C629.862 405.162 630.193 405.25 630.594 405.25ZM635.276 406V399.455H636.248V400.443H636.316C636.435 400.119 636.651 399.857 636.963 399.655C637.276 399.453 637.628 399.352 638.02 399.352C638.094 399.352 638.186 399.354 638.297 399.357C638.408 399.359 638.492 399.364 638.549 399.369V400.392C638.515 400.384 638.436 400.371 638.314 400.354C638.195 400.334 638.069 400.324 637.935 400.324C637.617 400.324 637.333 400.391 637.083 400.524C636.836 400.655 636.64 400.837 636.495 401.07C636.353 401.3 636.282 401.562 636.282 401.858V406H635.276ZM642.201 406.136C641.587 406.136 641.059 405.991 640.615 405.702C640.172 405.412 639.831 405.013 639.593 404.504C639.354 403.996 639.235 403.415 639.235 402.761C639.235 402.097 639.357 401.51 639.601 401.001C639.848 400.49 640.192 400.091 640.632 399.804C641.076 399.514 641.593 399.369 642.184 399.369C642.644 399.369 643.059 399.455 643.428 399.625C643.797 399.795 644.1 400.034 644.336 400.341C644.571 400.648 644.718 401.006 644.775 401.415H643.769C643.692 401.116 643.522 400.852 643.257 400.622C642.996 400.389 642.644 400.273 642.201 400.273C641.809 400.273 641.465 400.375 641.169 400.58C640.877 400.781 640.648 401.067 640.483 401.436C640.321 401.803 640.24 402.233 640.24 402.727C640.24 403.233 640.32 403.673 640.479 404.048C640.641 404.423 640.868 404.714 641.161 404.922C641.456 405.129 641.803 405.233 642.201 405.233C642.462 405.233 642.699 405.188 642.912 405.097C643.125 405.006 643.306 404.875 643.453 404.705C643.601 404.534 643.706 404.33 643.769 404.091H644.775C644.718 404.477 644.577 404.825 644.353 405.135C644.131 405.442 643.837 405.686 643.471 405.868C643.107 406.047 642.684 406.136 642.201 406.136ZM647.25 402.062V406H646.245V397.273H647.25V400.477H647.336C647.489 400.139 647.719 399.871 648.026 399.672C648.336 399.47 648.748 399.369 649.262 399.369C649.708 399.369 650.098 399.459 650.434 399.638C650.769 399.814 651.029 400.085 651.213 400.452C651.401 400.815 651.495 401.278 651.495 401.841V406H650.489V401.909C650.489 401.389 650.354 400.987 650.084 400.703C649.817 400.416 649.446 400.273 648.972 400.273C648.642 400.273 648.347 400.342 648.086 400.482C647.827 400.621 647.623 400.824 647.472 401.091C647.324 401.358 647.25 401.682 647.25 402.062ZM664.21 401.636C664.21 402.557 664.043 403.352 663.711 404.023C663.379 404.693 662.923 405.21 662.343 405.574C661.763 405.938 661.102 406.119 660.357 406.119C659.613 406.119 658.951 405.938 658.371 405.574C657.792 405.21 657.336 404.693 657.004 404.023C656.671 403.352 656.505 402.557 656.505 401.636C656.505 400.716 656.671 399.92 657.004 399.25C657.336 398.58 657.792 398.062 658.371 397.699C658.951 397.335 659.613 397.153 660.357 397.153C661.102 397.153 661.763 397.335 662.343 397.699C662.923 398.062 663.379 398.58 663.711 399.25C664.043 399.92 664.21 400.716 664.21 401.636ZM663.187 401.636C663.187 400.881 663.06 400.243 662.808 399.723C662.558 399.203 662.218 398.81 661.789 398.543C661.363 398.276 660.886 398.142 660.357 398.142C659.829 398.142 659.35 398.276 658.921 398.543C658.495 398.81 658.156 399.203 657.903 399.723C657.653 400.243 657.528 400.881 657.528 401.636C657.528 402.392 657.653 403.03 657.903 403.55C658.156 404.07 658.495 404.463 658.921 404.73C659.35 404.997 659.829 405.131 660.357 405.131C660.886 405.131 661.363 404.997 661.789 404.73C662.218 404.463 662.558 404.07 662.808 403.55C663.06 403.03 663.187 402.392 663.187 401.636ZM665.85 406V399.455H666.822V400.443H666.89C667.009 400.119 667.225 399.857 667.538 399.655C667.85 399.453 668.202 399.352 668.594 399.352C668.668 399.352 668.761 399.354 668.871 399.357C668.982 399.359 669.066 399.364 669.123 399.369V400.392C669.089 400.384 669.011 400.371 668.888 400.354C668.769 400.334 668.643 400.324 668.509 400.324C668.191 400.324 667.907 400.391 667.657 400.524C667.41 400.655 667.214 400.837 667.069 401.07C666.927 401.3 666.856 401.562 666.856 401.858V406H665.85ZM672.587 406.136C672.042 406.136 671.56 405.999 671.143 405.723C670.725 405.445 670.398 405.053 670.163 404.547C669.927 404.038 669.809 403.438 669.809 402.744C669.809 402.057 669.927 401.46 670.163 400.955C670.398 400.449 670.727 400.058 671.147 399.783C671.567 399.507 672.053 399.369 672.604 399.369C673.031 399.369 673.367 399.44 673.614 399.582C673.864 399.722 674.055 399.881 674.185 400.06C674.319 400.236 674.423 400.381 674.496 400.494H674.582V397.273H675.587V406H674.616V404.994H674.496C674.423 405.114 674.317 405.264 674.181 405.446C674.045 405.625 673.85 405.786 673.597 405.928C673.344 406.067 673.008 406.136 672.587 406.136ZM672.724 405.233C673.127 405.233 673.468 405.128 673.746 404.918C674.025 404.705 674.237 404.411 674.381 404.036C674.526 403.658 674.599 403.222 674.599 402.727C674.599 402.239 674.528 401.811 674.386 401.445C674.244 401.075 674.033 400.788 673.755 400.584C673.477 400.376 673.133 400.273 672.724 400.273C672.298 400.273 671.942 400.382 671.658 400.601C671.377 400.817 671.165 401.111 671.023 401.483C670.884 401.852 670.815 402.267 670.815 402.727C670.815 403.193 670.886 403.616 671.028 403.997C671.173 404.375 671.386 404.676 671.667 404.901C671.951 405.122 672.303 405.233 672.724 405.233ZM680.313 406.136C679.683 406.136 679.138 405.997 678.681 405.719C678.227 405.438 677.876 405.045 677.629 404.543C677.384 404.037 677.262 403.449 677.262 402.778C677.262 402.108 677.384 401.517 677.629 401.006C677.876 400.491 678.219 400.091 678.66 399.804C679.103 399.514 679.62 399.369 680.211 399.369C680.552 399.369 680.888 399.426 681.221 399.54C681.553 399.653 681.856 399.838 682.129 400.094C682.401 400.347 682.619 400.682 682.781 401.099C682.942 401.517 683.023 402.031 683.023 402.642V403.068H677.978V402.199H682.001C682.001 401.83 681.927 401.5 681.779 401.21C681.634 400.92 681.427 400.692 681.157 400.524C680.89 400.357 680.575 400.273 680.211 400.273C679.81 400.273 679.464 400.372 679.171 400.571C678.881 400.767 678.658 401.023 678.502 401.338C678.346 401.653 678.268 401.991 678.268 402.352V402.932C678.268 403.426 678.353 403.845 678.523 404.189C678.697 404.53 678.937 404.79 679.244 404.969C679.55 405.145 679.907 405.233 680.313 405.233C680.577 405.233 680.816 405.196 681.029 405.122C681.245 405.045 681.431 404.932 681.587 404.781C681.744 404.628 681.864 404.437 681.95 404.21L682.921 404.483C682.819 404.812 682.647 405.102 682.406 405.352C682.164 405.599 681.866 405.793 681.511 405.932C681.156 406.068 680.756 406.136 680.313 406.136ZM684.553 406V399.455H685.525V400.443H685.593C685.712 400.119 685.928 399.857 686.241 399.655C686.553 399.453 686.906 399.352 687.298 399.352C687.371 399.352 687.464 399.354 687.575 399.357C687.685 399.359 687.769 399.364 687.826 399.369V400.392C687.792 400.384 687.714 400.371 687.592 400.354C687.472 400.334 687.346 400.324 687.212 400.324C686.894 400.324 686.61 400.391 686.36 400.524C686.113 400.655 685.917 400.837 685.772 401.07C685.63 401.3 685.559 401.562 685.559 401.858V406H684.553ZM695.649 406L697.081 397.273H697.933L696.501 406H695.649ZM691.677 403.58L691.814 402.727H698.325L698.189 403.58H691.677ZM692.581 406L694.012 397.273H694.865L693.433 406H692.581ZM692.189 400.545L692.325 399.693H698.836L698.7 400.545H692.189Z" fill="black"/>
</g>
<defs>
<clipPath id="clip0_6_10">
<rect width="1440" height="1024" fill="white"/>
</clipPath>
</defs>
</svg>
